<svg width="96" height="96" xmlns="http://www.w3.org/2000/svg" xmlns:xlink="http://www.w3.org/1999/xlink" xml:space="preserve" overflow="hidden"><g transform="translate(-658 -70)"><path d="M731.5 92 727.6 95.9C740 108.3 740 128.5 727.6 140.9L731.5 144.8C746.1 130.3 746.1 106.6 731.5 92Z" stroke="#FFFFFF" fill="#FFFFFF"/><path d="M723.6 99.8 719.7 103.7C727.8 111.8 727.8 124.9 719.7 133.1L723.6 137C733.9 126.7 733.9 110.1 723.6 99.8Z" stroke="#FFFFFF" fill="#FFFFFF"/><path d="M715.9 107.8 712 111.7C715.8 115.5 715.8 121.6 712 125.4L715.9 129.3C721.9 123.3 721.9 113.7 715.9 107.8Z" stroke="#FFFFFF" fill="#FFFFFF"/><path d="M661.5 104.6 661.5 131.4 680.9 131.4 706 152 706 84 680.9 104.6Z" stroke="#FFFFFF" fill="#FFFFFF"/></g></svg>